<svg xmlns="http://www.w3.org/2000/svg" viewBox="0 0 1015 405" width="1015" height="405" fill="none">
  <!-- QODES Lettermark -->
  <path fill-rule="evenodd" clip-rule="evenodd" d="M 157.0 10.8 L 136.0 12.6 L 118.0 16.8 L 103.0 21.8 L 86.0 29.7 L 67.0 41.8 L 55.0 51.6 L 46.0 60.5 L 37.0 71.8 L 29.8 82.0 L 20.8 100.0 L 15.8 115.0 L 11.6 134.0 L 10.5 147.0 L 10.5 162.0 L 11.5 167.0 L 11.5 173.0 L 13.8 186.0 L 17.9 201.0 L 22.3 212.0 L 28.8 225.0 L 37.8 239.0 L 42.6 245.0 L 52.0 255.5 L 62.0 264.4 L 82.0 278.2 L 102.0 288.2 L 113.0 292.1 L 130.0 297.0 L 148.0 314.4 L 168.0 330.2 L 187.0 342.2 L 206.0 351.7 L 222.0 358.1 L 234.0 362.2 L 258.0 368.4 L 268.0 370.4 L 285.0 372.5 L 293.0 371.1 L 294.3 370.0 L 294.3 369.0 L 293.3 368.0 L 277.0 361.3 L 260.0 352.2 L 249.8 345.0 L 242.0 338.5 L 228.6 325.0 L 217.0 310.2 L 209.3 298.0 L 204.2 287.0 L 206.0 284.8 L 216.0 280.7 L 227.0 275.3 L 239.0 268.2 L 253.2 258.0 L 260.5 252.0 L 271.0 241.5 L 277.0 234.2 L 287.2 219.0 L 293.3 207.0 L 300.2 188.0 L 303.2 176.0 L 305.5 157.0 L 305.5 140.0 L 303.4 123.0 L 299.2 105.0 L 296.2 96.0 L 288.7 79.0 L 276.4 60.0 L 271.0 53.5 L 259.5 42.0 L 243.0 29.8 L 227.0 21.8 L 215.0 17.8 L 203.0 14.8 L 191.0 12.6 L 181.0 11.5 L 172.0 11.5 L 167.0 10.5 L 157.0 10.8 Z M 150.5 34.0 L 154.0 33.5 L 169.0 33.6 L 177.0 34.9 L 187.0 37.8 L 196.0 41.7 L 203.0 45.8 L 212.0 52.6 L 220.0 60.5 L 224.2 66.0 L 231.7 78.0 L 239.2 95.0 L 243.1 108.0 L 245.4 118.0 L 248.5 143.0 L 248.5 163.0 L 245.1 188.0 L 240.2 205.0 L 234.7 218.0 L 229.2 228.0 L 220.0 240.5 L 212.0 249.0 L 205.0 255.2 L 191.1 264.0 L 183.0 267.7 L 176.0 270.2 L 166.0 272.5 L 147.0 272.4 L 132.0 268.2 L 125.0 265.3 L 120.0 262.2 L 113.0 257.4 L 104.6 250.0 L 99.0 243.2 L 91.8 233.0 L 83.7 217.0 L 80.8 210.0 L 74.6 189.0 L 71.6 172.0 L 71.5 164.0 L 70.5 159.0 L 70.5 140.0 L 71.5 135.0 L 71.5 128.0 L 75.6 107.0 L 80.0 93.6 L 85.7 81.0 L 89.8 74.0 L 99.5 61.0 L 106.0 54.6 L 116.0 46.8 L 125.0 41.7 L 134.0 37.8 L 140.0 35.9 L 150.5 34.0 Z M 934.0 51.8 L 928.0 52.6 L 919.0 54.9 L 908.0 59.7 L 902.0 63.6 L 892.0 73.8 L 885.8 85.0 L 882.6 97.0 L 882.5 111.0 L 883.6 118.0 L 887.8 128.0 L 892.6 135.0 L 898.8 141.0 L 911.0 148.3 L 944.0 162.9 L 955.2 170.0 L 960.5 175.0 L 964.7 181.0 L 966.4 187.0 L 966.5 196.0 L 965.1 202.0 L 961.4 208.0 L 955.0 213.7 L 947.0 217.1 L 940.0 218.4 L 935.0 218.5 L 925.0 216.2 L 919.0 213.2 L 915.0 210.1 L 910.5 204.0 L 907.9 198.0 L 906.6 193.0 L 906.3 185.0 L 905.0 183.5 L 902.0 183.8 L 878.0 193.0 L 876.7 195.0 L 876.5 198.0 L 879.8 210.0 L 883.8 218.0 L 890.0 226.5 L 895.0 231.4 L 900.0 235.2 L 909.0 240.2 L 921.0 244.2 L 929.0 245.5 L 947.0 245.5 L 961.0 242.1 L 971.0 237.7 L 980.0 231.4 L 987.4 224.0 L 993.1 216.0 L 998.2 204.0 L 999.4 199.0 L 999.5 193.0 L 1000.3 189.0 L 999.4 178.0 L 994.2 164.0 L 989.4 157.0 L 982.0 149.6 L 971.0 141.8 L 962.0 136.9 L 932.0 124.3 L 928.0 122.2 L 920.9 117.0 L 916.8 112.0 L 914.9 107.0 L 914.9 95.0 L 916.8 90.0 L 921.0 84.6 L 926.0 81.3 L 933.0 78.6 L 946.0 78.6 L 956.0 82.3 L 962.4 87.0 L 967.2 94.0 L 969.5 99.0 L 971.0 99.8 L 974.0 98.7 L 992.0 88.2 L 994.9 86.0 L 995.6 84.0 L 994.2 80.0 L 988.5 72.0 L 982.2 66.0 L 972.0 59.3 L 961.0 54.9 L 952.0 52.6 L 943.0 51.5 L 934.0 51.8 Z M 427.0 52.8 L 410.0 55.8 L 400.0 58.9 L 387.0 64.7 L 380.0 68.8 L 372.0 74.6 L 366.5 79.0 L 356.6 89.0 L 345.3 105.0 L 339.8 116.0 L 335.8 128.0 L 333.5 138.0 L 333.5 147.0 L 332.8 151.0 L 333.5 155.0 L 333.6 163.0 L 335.9 173.0 L 339.8 185.0 L 347.8 200.0 L 355.5 210.0 L 366.5 221.0 L 373.0 226.2 L 388.0 235.3 L 406.0 242.1 L 422.0 245.4 L 430.0 245.5 L 435.0 246.5 L 451.0 245.4 L 466.0 242.2 L 475.0 239.2 L 482.0 236.3 L 493.0 230.2 L 503.2 223.0 L 511.0 216.4 L 521.4 205.0 L 529.7 193.0 L 535.7 181.0 L 539.2 172.0 L 541.4 163.0 L 542.5 154.0 L 542.5 142.0 L 541.4 132.0 L 537.2 117.0 L 530.2 102.0 L 520.0 87.5 L 509.5 77.0 L 504.0 72.8 L 495.0 66.8 L 485.0 61.7 L 478.0 58.9 L 471.0 56.8 L 462.0 54.6 L 449.0 52.5 L 427.0 52.8 Z M 569.0 55.8 L 567.8 57.0 L 567.5 60.0 L 567.5 236.0 L 568.0 239.3 L 569.0 240.2 L 572.0 240.5 L 645.0 240.5 L 656.0 239.4 L 663.0 238.1 L 673.0 235.2 L 683.0 230.7 L 693.2 224.0 L 699.5 219.0 L 711.5 207.0 L 718.2 198.0 L 723.2 188.0 L 726.2 179.0 L 729.4 163.0 L 729.5 138.0 L 726.1 121.0 L 720.3 105.0 L 716.2 97.0 L 710.0 87.8 L 702.4 79.0 L 691.0 69.8 L 684.0 65.7 L 675.0 61.8 L 665.0 58.9 L 651.0 56.6 L 643.0 56.5 L 638.0 55.5 L 569.0 55.8 Z M 758.0 55.7 L 756.0 57.8 L 755.5 61.0 L 755.5 235.0 L 756.1 239.0 L 758.0 240.3 L 760.0 240.5 L 858.0 240.2 L 859.4 238.0 L 859.5 216.0 L 859.0 213.1 L 857.9 212.0 L 855.0 211.5 L 791.0 211.5 L 789.0 211.2 L 787.8 210.0 L 787.5 161.0 L 788.3 158.0 L 790.0 156.9 L 793.0 156.5 L 858.0 156.2 L 859.4 154.0 L 859.5 133.0 L 858.9 129.0 L 858.0 128.1 L 856.0 127.5 L 791.0 127.5 L 788.7 127.0 L 787.8 126.0 L 787.5 124.0 L 787.5 89.0 L 787.8 86.0 L 790.0 84.6 L 858.0 84.2 L 859.2 83.0 L 859.5 81.0 L 859.2 57.0 L 858.0 55.8 L 856.0 55.5 L 758.0 55.7 Z M 431.5 82.0 L 443.0 81.5 L 461.0 84.9 L 474.0 90.3 L 486.0 98.6 L 494.4 107.0 L 502.3 119.0 L 507.1 131.0 L 509.5 144.0 L 509.4 153.0 L 506.1 168.0 L 501.2 179.0 L 491.5 192.0 L 481.0 201.2 L 475.0 205.2 L 468.0 208.7 L 455.0 213.2 L 441.0 215.5 L 433.0 215.5 L 424.0 214.4 L 412.0 211.2 L 404.0 208.1 L 394.0 202.2 L 389.0 198.4 L 379.6 189.0 L 372.7 179.0 L 367.9 168.0 L 365.6 159.0 L 364.5 150.0 L 365.6 139.0 L 367.9 130.0 L 369.8 125.0 L 374.8 115.0 L 383.0 104.5 L 387.0 100.6 L 395.8 94.0 L 404.0 89.3 L 416.0 84.8 L 431.5 82.0 Z M 601.7 86.0 L 604.0 85.5 L 630.0 85.5 L 648.0 87.6 L 661.0 90.9 L 671.0 95.8 L 676.0 99.6 L 680.4 104.0 L 685.2 111.0 L 689.1 119.0 L 692.1 129.0 L 693.4 136.0 L 694.5 148.0 L 693.4 164.0 L 692.1 170.0 L 689.2 179.0 L 685.2 187.0 L 678.0 196.1 L 669.0 203.2 L 659.0 208.1 L 642.0 211.4 L 604.0 211.5 L 602.0 211.2 L 600.8 210.0 L 600.5 89.0 L 600.8 87.0 L 601.7 86.0 Z " fill="#38BDF8" />

  <!-- Underline Divider -->
  <rect x="280" y="267.5" width="720" height="8.5" rx="4.25" fill="#38BDF8" />

  <!-- Systems Subtext -->
  <path fill-rule="nonzero" d="M 370.45 375.40 C 370.45 373.20, 370.28 371.46, 369.93 370.20 C 369.59 368.94, 368.81 368.01, 367.60 367.40 C 366.38 366.80, 364.50 366.40, 361.96 366.21 C 359.41 366.03, 355.92 365.90, 351.49 365.82 L 330.86 365.53 C 325.76 365.45, 321.67 365.14, 318.57 364.60 C 315.48 364.06, 313.14 363.20, 311.56 362.02 C 309.98 360.85, 308.92 359.27, 308.39 357.29 C 307.86 355.31, 307.59 352.84, 307.59 349.87 C 307.59 346.63, 307.95 343.95, 308.68 341.85 C 309.41 339.75, 310.74 338.10, 312.66 336.92 C 314.57 335.73, 317.29 334.89, 320.80 334.41 C 324.31 333.93, 328.85 333.69, 334.42 333.69 L 350.30 333.69 C 355.35 333.69, 359.56 333.85, 362.92 334.17 C 366.28 334.49, 368.96 335.23, 370.94 336.40 C 372.91 337.56, 374.33 339.37, 375.18 341.81 C 376.04 344.26, 376.46 347.63, 376.46 351.91 L 369.34 351.91 C 369.34 348.59, 369.02 346.09, 368.39 344.39 C 367.76 342.70, 366.72 341.54, 365.28 340.92 C 363.83 340.31, 361.88 339.97, 359.43 339.92 C 356.98 339.87, 353.94 339.85, 350.30 339.85 L 334.79 339.85 C 330.36 339.85, 326.82 339.93, 324.16 340.11 C 321.50 340.28, 319.49 340.68, 318.13 341.29 C 316.77 341.91, 315.86 342.90, 315.40 344.26 C 314.94 345.62, 314.71 347.49, 314.71 349.87 C 314.71 351.87, 314.88 353.48, 315.20 354.69 C 315.52 355.90, 316.24 356.83, 317.37 357.46 C 318.49 358.09, 320.23 358.52, 322.58 358.75 C 324.93 358.99, 328.14 359.13, 332.19 359.18 L 354.31 359.48 C 359.51 359.55, 363.66 359.86, 366.76 360.39 C 369.87 360.92, 372.19 361.78, 373.74 362.97 C 375.28 364.15, 376.31 365.76, 376.82 367.77 C 377.32 369.79, 377.58 372.33, 377.58 375.40 C 377.58 378.74, 377.26 381.54, 376.63 383.80 C 376.00 386.07, 374.78 387.88, 372.98 389.24 C 371.17 390.60, 368.56 391.58, 365.15 392.17 C 361.73 392.77, 357.24 393.06, 351.68 393.06 L 334.31 393.06 C 329.24 393.06, 324.98 392.84, 321.54 392.39 C 318.10 391.95, 315.36 391.05, 313.32 389.70 C 311.28 388.36, 309.82 386.35, 308.93 383.67 C 308.04 381.00, 307.59 377.44, 307.59 372.99 L 314.71 372.99 C 314.71 376.47, 315.00 379.17, 315.57 381.08 C 316.14 382.98, 317.13 384.35, 318.56 385.18 C 319.98 386.01, 321.97 386.50, 324.53 386.66 C 327.09 386.82, 330.35 386.90, 334.31 386.90 L 351.30 386.90 C 355.73 386.90, 359.23 386.76, 361.81 386.48 C 364.38 386.19, 366.28 385.65, 367.52 384.84 C 368.76 384.04, 369.56 382.88, 369.92 381.37 C 370.27 379.86, 370.45 377.87, 370.45 375.40 M 425.58 406.13 L 425.58 400.19 C 428.13 400.19, 430.24 400.13, 431.91 400.02 C 433.58 399.91, 434.98 399.60, 436.10 399.09 C 437.23 398.59, 438.24 397.76, 439.15 396.63 C 440.05 395.49, 441.00 393.90, 441.99 391.88 L 439.61 391.88 L 415.86 349.13 L 424.03 349.13 L 444.36 386.57 L 461.47 349.13 L 469.82 349.13 L 448.15 394.25 C 447.18 396.25, 446.19 398.00, 445.16 399.48 C 444.13 400.97, 442.85 402.20, 441.30 403.19 C 439.75 404.18, 437.73 404.92, 435.23 405.40 C 432.73 405.88, 429.52 406.13, 425.58 406.13 M 548.56 392.69 C 543.37 392.69, 539.19 392.52, 536.04 392.17 C 532.88 391.83, 530.50 391.18, 528.88 390.24 C 527.26 389.30, 526.17 387.97, 525.61 386.23 C 525.05 384.50, 524.78 382.25, 524.78 379.48 L 531.60 379.48 C 531.60 381.04, 531.71 382.29, 531.94 383.25 C 532.16 384.20, 532.79 384.93, 533.83 385.44 C 534.87 385.94, 536.56 386.29, 538.90 386.48 C 541.23 386.66, 544.52 386.75, 548.75 386.75 C 553.23 386.75, 556.71 386.66, 559.19 386.48 C 561.68 386.29, 563.47 385.94, 564.56 385.44 C 565.65 384.93, 566.31 384.19, 566.54 383.23 C 566.78 382.26, 566.89 380.99, 566.89 379.41 C 566.89 377.48, 566.72 376.03, 566.38 375.06 C 566.03 374.10, 565.21 373.45, 563.93 373.12 C 562.64 372.78, 560.59 372.60, 557.77 372.58 L 540.77 372.39 C 536.39 372.34, 533.05 371.97, 530.75 371.28 C 528.45 370.59, 526.88 369.37, 526.04 367.62 C 525.20 365.88, 524.78 363.40, 524.78 360.18 C 524.78 357.19, 525.24 354.88, 526.17 353.24 C 527.09 351.61, 528.55 350.45, 530.53 349.76 C 532.51 349.06, 535.08 348.65, 538.25 348.51 C 541.41 348.38, 545.24 348.31, 549.71 348.31 C 554.98 348.31, 559.17 348.47, 562.27 348.79 C 565.38 349.11, 567.70 349.72, 569.25 350.61 C 570.80 351.50, 571.81 352.79, 572.29 354.49 C 572.78 356.18, 573.02 358.39, 573.02 361.11 L 566.19 361.11 C 566.19 359.50, 566.08 358.24, 565.86 357.31 C 565.63 356.38, 565.03 355.70, 564.06 355.27 C 563.08 354.83, 561.50 354.56, 559.31 354.43 C 557.12 354.31, 554.04 354.25, 550.08 354.25 C 545.58 354.25, 542.08 354.30, 539.58 354.39 C 537.08 354.49, 535.28 354.73, 534.16 355.10 C 533.05 355.47, 532.37 356.06, 532.12 356.86 C 531.88 357.67, 531.75 358.77, 531.75 360.18 C 531.75 361.62, 531.83 362.75, 531.99 363.58 C 532.15 364.41, 532.58 365.03, 533.27 365.45 C 533.97 365.87, 535.10 366.15, 536.67 366.29 C 538.24 366.42, 540.44 366.50, 543.26 366.53 L 557.91 366.68 C 562.32 366.73, 565.66 367.09, 567.95 367.77 C 570.24 368.45, 571.80 369.70, 572.63 371.52 C 573.46 373.34, 573.87 375.97, 573.87 379.41 C 573.87 382.50, 573.42 384.94, 572.52 386.72 C 571.61 388.50, 570.17 389.82, 568.19 390.67 C 566.21 391.52, 563.61 392.07, 560.38 392.32 C 557.15 392.57, 553.21 392.69, 548.56 392.69 M 647.68 391.88 C 643.33 391.88, 639.84 391.44, 637.22 390.56 C 634.60 389.68, 632.70 388.12, 631.52 385.88 C 630.35 383.64, 629.76 380.49, 629.76 376.44 L 629.76 337.44 L 636.88 337.44 L 636.88 349.13 L 663.20 349.13 L 663.20 354.99 L 636.88 354.99 L 636.88 376.44 C 636.88 379.21, 637.14 381.27, 637.65 382.63 C 638.15 384.00, 639.18 384.89, 640.73 385.31 C 642.27 385.73, 644.59 385.94, 647.68 385.94 C 650.43 385.94, 652.59 385.85, 654.16 385.68 C 655.73 385.50, 656.89 385.04, 657.63 384.29 C 658.37 383.53, 658.84 382.29, 659.04 380.56 C 659.24 378.82, 659.34 376.39, 659.34 373.25 L 665.64 373.25 C 665.64 377.35, 665.39 380.64, 664.88 383.12 C 664.38 385.59, 663.47 387.46, 662.17 388.72 C 660.88 389.98, 659.06 390.82, 656.72 391.24 C 654.38 391.66, 651.37 391.88, 647.68 391.88 M 768.35 379.18 C 768.35 382.38, 767.88 384.89, 766.92 386.72 C 765.97 388.55, 764.52 389.88, 762.56 390.72 C 760.61 391.57, 758.12 392.10, 755.09 392.34 C 752.05 392.57, 748.45 392.69, 744.27 392.69 C 739.49 392.69, 735.44 392.45, 732.11 391.97 C 728.79 391.49, 726.10 390.50, 724.06 389.00 C 722.02 387.50, 720.54 385.26, 719.61 382.26 C 718.68 379.27, 718.22 375.27, 718.22 370.28 C 718.22 365.43, 718.67 361.54, 719.57 358.63 C 720.47 355.71, 721.94 353.50, 723.97 352.02 C 726.00 350.54, 728.66 349.55, 731.97 349.05 C 735.27 348.56, 739.31 348.31, 744.08 348.31 C 749.55 348.31, 754.08 348.69, 757.66 349.46 C 761.25 350.23, 763.93 351.69, 765.70 353.84 C 767.47 355.99, 768.35 359.14, 768.35 363.30 L 768.35 372.47 L 725.38 372.47 C 725.40 375.63, 725.63 378.17, 726.05 380.07 C 726.47 381.98, 727.31 383.41, 728.57 384.38 C 729.83 385.34, 731.72 385.98, 734.23 386.29 C 736.74 386.60, 740.09 386.75, 744.27 386.75 C 748.03 386.75, 751.06 386.68, 753.38 386.53 C 755.69 386.38, 757.45 386.06, 758.65 385.55 C 759.85 385.04, 760.66 384.28, 761.08 383.27 C 761.50 382.25, 761.71 380.89, 761.71 379.18 M 744.08 354.25 C 740.05 354.25, 736.80 354.39, 734.34 354.69 C 731.88 354.99, 730.01 355.56, 728.72 356.42 C 727.43 357.27, 726.56 358.54, 726.10 360.22 C 725.64 361.90, 725.40 364.12, 725.38 366.86 L 761.52 366.86 L 761.52 363.30 C 761.52 361.52, 761.32 360.04, 760.91 358.87 C 760.50 357.69, 759.71 356.76, 758.52 356.08 C 757.33 355.40, 755.58 354.93, 753.27 354.65 C 750.95 354.38, 747.89 354.25, 744.08 354.25 M 823.05 391.88 L 823.05 349.13 L 830.18 349.13 L 830.18 354.43 C 831.24 353.00, 832.52 351.80, 834.00 350.83 C 835.48 349.87, 837.38 349.14, 839.70 348.66 C 842.01 348.18, 844.97 347.94, 848.58 347.94 C 853.06 347.94, 856.71 348.54, 859.53 349.76 C 862.35 350.97, 864.43 353.06, 865.77 356.03 C 866.98 354.15, 868.44 352.61, 870.14 351.41 C 871.85 350.21, 874.00 349.33, 876.58 348.77 C 879.17 348.22, 882.35 347.94, 886.14 347.94 C 890.64 347.94, 894.30 348.55, 897.12 349.77 C 899.94 351.00, 902.02 353.08, 903.34 356.03 C 904.66 358.97, 905.32 363.00, 905.32 368.13 L 905.32 391.88 L 898.20 391.88 L 898.20 368.13 C 898.20 364.22, 897.79 361.24, 896.97 359.20 C 896.16 357.16, 894.80 355.76, 892.91 355.01 C 891.02 354.25, 888.46 353.88, 885.25 353.88 C 878.94 353.88, 874.44 354.80, 871.76 356.66 C 869.07 358.51, 867.73 361.54, 867.73 365.75 L 867.73 365.71 C 867.76 366.48, 867.77 367.28, 867.77 368.13 L 867.77 391.88 L 860.64 391.88 L 860.64 368.13 C 860.64 364.22, 860.24 361.24, 859.42 359.20 C 858.60 357.16, 857.25 355.76, 855.36 355.01 C 853.46 354.25, 850.91 353.88, 847.69 353.88 C 841.38 353.88, 836.89 354.80, 834.20 356.66 C 831.52 358.51, 830.18 361.54, 830.18 365.75 L 830.18 391.88 Z M 974.56 392.69 C 969.37 392.69, 965.19 392.52, 962.04 392.17 C 958.88 391.83, 956.50 391.18, 954.88 390.24 C 953.26 389.30, 952.17 387.97, 951.61 386.23 C 951.05 384.50, 950.78 382.25, 950.78 379.48 L 957.60 379.48 C 957.60 381.04, 957.71 382.29, 957.94 383.25 C 958.16 384.20, 958.79 384.93, 959.83 385.44 C 960.87 385.94, 962.56 386.29, 964.90 386.48 C 967.23 386.66, 970.52 386.75, 974.75 386.75 C 979.23 386.75, 982.71 386.66, 985.19 386.48 C 987.68 386.29, 989.47 385.94, 990.56 385.44 C 991.65 384.93, 992.31 384.19, 992.54 383.23 C 992.78 382.26, 992.89 380.99, 992.89 379.41 C 992.89 377.48, 992.72 376.03, 992.38 375.06 C 992.03 374.10, 991.21 373.45, 989.93 373.12 C 988.64 372.78, 986.59 372.60, 983.77 372.58 L 966.77 372.39 C 962.39 372.34, 959.05 371.97, 956.75 371.28 C 954.45 370.59, 952.88 369.37, 952.04 367.62 C 951.20 365.88, 950.78 363.40, 950.78 360.18 C 950.78 357.19, 951.24 354.88, 952.17 353.24 C 953.09 351.61, 954.55 350.45, 956.53 349.76 C 958.51 349.06, 961.08 348.65, 964.25 348.51 C 967.41 348.38, 971.24 348.31, 975.71 348.31 C 980.98 348.31, 985.17 348.47, 988.27 348.79 C 991.38 349.11, 993.70 349.72, 995.25 350.61 C 996.80 351.50, 997.81 352.79, 998.29 354.49 C 998.78 356.18, 999.02 358.39, 999.02 361.11 L 992.19 361.11 C 992.19 359.50, 992.08 358.24, 991.86 357.31 C 991.63 356.38, 991.03 355.70, 990.06 355.27 C 989.08 354.83, 987.50 354.56, 985.31 354.43 C 983.12 354.31, 980.04 354.25, 976.08 354.25 C 971.58 354.25, 968.08 354.30, 965.58 354.39 C 963.08 354.49, 961.28 354.73, 960.16 355.10 C 959.05 355.47, 958.37 356.06, 958.12 356.86 C 957.88 357.67, 957.75 358.77, 957.75 360.18 C 957.75 361.62, 957.83 362.75, 957.99 363.58 C 958.15 364.41, 958.58 365.03, 959.27 365.45 C 959.97 365.87, 961.10 366.15, 962.67 366.29 C 964.24 366.42, 966.44 366.50, 969.26 366.53 L 983.91 366.68 C 988.32 366.73, 991.66 367.09, 993.95 367.77 C 996.24 368.45, 997.80 369.70, 998.63 371.52 C 999.46 373.34, 999.87 375.97, 999.87 379.41 C 999.87 382.50, 999.42 384.94, 998.52 386.72 C 997.61 388.50, 996.17 389.82, 994.19 390.67 C 992.21 391.52, 989.61 392.07, 986.38 392.32 C 983.15 392.57, 979.21 392.69, 974.56 392.69 M 368.91 375.37 L 368.91 375.65 L 368.41 370.49 L 368.76 371.35 L 366.43 368.52 L 367.13 369.01 L 364.80 368.17 L 365.17 368.26 L 361.84 367.93 L 357.44 367.77 L 351.41 367.43 L 330.99 367.27 L 323.92 366.93 L 318.47 366.25 L 314.13 365.22 C 314.00 365.19, 313.87 365.14, 313.75 365.08 L 310.92 363.58 C 310.68 363.45, 310.48 363.27, 310.33 363.04 L 307.16 358.21 C 307.02 358.00, 306.94 357.76, 306.91 357.51 L 306.08 350.18 C 306.06 350.04, 306.06 349.91, 306.08 349.77 L 307.25 341.77 C 307.29 341.50, 307.40 341.24, 307.56 341.03 L 311.40 336.03 C 311.56 335.81, 311.78 335.64, 312.04 335.53 L 315.54 334.03 C 315.63 333.99, 315.73 333.96, 315.83 333.94 L 320.50 332.94 L 326.87 332.41 L 334.46 332.23 L 350.33 332.23 L 357.37 332.40 L 363.05 332.57 C 363.18 332.57, 363.32 332.59, 363.45 332.63 L 371.45 334.96 C 371.76 335.06, 372.04 335.24, 372.24 335.49 L 376.58 340.82 C 376.74 341.03, 376.85 341.27, 376.90 341.53 L 377.74 345.86 L 378.10 351.91 C 378.12 352.35, 377.97 352.78, 377.66 353.10 C 377.36 353.42, 376.94 353.60, 376.50 353.60 L 369.50 353.60 C 368.64 353.60, 367.93 352.92, 367.90 352.06 L 367.73 347.73 L 367.79 348.07 L 366.95 344.91 L 367.31 345.57 L 364.15 342.07 L 365.06 342.58 L 359.23 341.58 L 359.50 341.60 L 350.33 341.60 L 334.83 341.60 L 328.83 341.60 L 324.22 341.77 L 324.47 341.74 L 318.47 342.90 L 319.36 342.40 L 316.70 345.40 L 317.09 344.52 L 316.42 350.19 L 316.42 349.84 L 316.92 354.67 L 316.58 353.82 L 318.74 356.49 L 318.07 356.01 L 320.24 356.84 L 319.93 356.76 L 322.93 357.26 L 326.96 357.57 L 332.38 357.73 L 354.35 357.90 L 361.41 358.24 L 367.03 358.91 L 371.37 359.94 C 371.50 359.98, 371.63 360.02, 371.75 360.09 L 374.58 361.59 C 374.83 361.72, 375.04 361.92, 375.19 362.16 L 378.19 366.99 C 378.32 367.19, 378.40 367.42, 378.42 367.66 L 379.26 375.33 C 379.27 375.45, 379.27 375.57, 379.26 375.69 L 378.26 384.02 C 378.23 384.27, 378.14 384.51, 378.00 384.72 L 374.33 390.22 C 374.18 390.45, 373.96 390.64, 373.72 390.76 L 370.38 392.43 C 370.28 392.48, 370.18 392.52, 370.07 392.55 L 365.57 393.72 L 359.56 394.58 L 351.87 394.77 L 334.33 394.77 L 327.30 394.60 L 321.53 394.09 L 316.66 393.06 C 316.55 393.04, 316.44 393.00, 316.34 392.96 L 312.67 391.29 C 312.42 391.17, 312.20 391.00, 312.04 390.77 L 307.70 384.77 C 307.57 384.59, 307.48 384.38, 307.43 384.16 L 306.43 379.32 C 306.42 379.25, 306.41 379.17, 306.40 379.09 L 306.07 373.09 C 306.04 372.65, 306.20 372.22, 306.50 371.90 C 306.81 371.58, 307.23 371.40, 307.67 371.40 L 314.83 371.40 C 315.69 371.40, 316.40 372.08, 316.43 372.94 L 316.60 377.61 L 316.57 377.37 L 317.24 380.87 L 316.97 380.23 L 319.97 384.40 L 319.01 383.77 L 325.01 385.10 L 324.73 385.07 L 329.06 385.23 L 334.38 385.40 L 351.33 385.40 L 357.29 385.23 L 361.72 384.90 L 365.11 384.42 L 364.70 384.53 L 367.04 383.53 L 366.34 384.11 L 368.67 380.61 L 368.41 381.37 Z M 371.59 381.63 C 371.57 381.90, 371.48 382.16, 371.33 382.39 L 369.00 385.89 C 368.83 386.15, 368.58 386.35, 368.30 386.47 L 365.96 387.47 C 365.83 387.53, 365.70 387.56, 365.56 387.58 L 361.95 388.10 L 357.38 388.43 L 351.33 388.60 L 334.28 388.60 L 328.94 388.43 L 324.61 388.27 C 324.51 388.26, 324.41 388.25, 324.32 388.23 L 318.32 386.90 C 317.94 386.81, 317.60 386.59, 317.37 386.27 L 314.37 382.10 C 314.23 381.91, 314.14 381.70, 314.09 381.47 L 313.43 377.97 C 313.41 377.89, 313.40 377.81, 313.40 377.72 L 313.23 373.06 L 314.83 374.60 L 307.67 374.60 L 309.26 372.91 L 309.60 378.91 L 309.57 378.68 L 310.57 383.51 L 310.30 382.90 L 314.63 388.90 L 314.00 388.38 L 317.66 390.04 L 317.34 389.94 L 321.81 390.91 L 327.37 391.40 L 334.33 391.57 L 351.80 391.57 L 359.11 391.42 L 364.77 390.62 L 369.27 389.45 L 368.95 389.57 L 372.28 387.90 L 371.67 388.45 L 375.34 382.95 L 375.08 383.64 L 376.08 375.31 L 376.08 375.67 L 375.24 368.01 L 375.47 368.68 L 372.47 363.84 L 373.08 364.41 L 370.25 362.91 L 370.63 363.06 L 366.64 362.09 L 361.26 361.43 L 354.32 361.10 L 332.28 360.93 L 326.71 360.76 L 322.40 360.41 L 319.40 359.91 C 319.30 359.89, 319.19 359.87, 319.09 359.83 L 316.93 358.99 C 316.66 358.89, 316.43 358.73, 316.26 358.51 L 314.09 355.84 C 313.90 355.60, 313.77 355.31, 313.74 355.00 L 313.24 350.16 C 313.23 350.05, 313.23 349.93, 313.24 349.81 L 313.91 344.15 C 313.95 343.82, 314.09 343.52, 314.30 343.27 L 316.97 340.27 C 317.20 340.01, 317.52 339.83, 317.86 339.76 L 323.86 338.60 C 323.94 338.58, 324.03 338.57, 324.11 338.57 L 328.83 338.40 L 334.83 338.40 L 350.33 338.40 L 359.50 338.40 C 359.59 338.40, 359.68 338.41, 359.77 338.42 L 365.60 339.42 C 365.96 339.48, 366.28 339.66, 366.52 339.93 L 369.69 343.43 C 369.86 343.62, 369.98 343.85, 370.05 344.09 L 370.88 347.26 C 370.91 347.37, 370.93 347.49, 370.93 347.61 L 371.10 351.94 L 369.50 350.40 L 376.50 350.40 L 374.90 352.09 L 374.60 346.47 L 373.76 342.14 L 374.09 342.84 L 369.76 337.51 L 370.55 338.04 L 362.55 335.70 L 362.95 335.77 L 357.30 335.60 L 350.33 335.43 L 334.54 335.43 L 327.13 335.59 L 321.17 336.06 L 316.50 337.06 L 316.80 336.97 L 313.30 338.47 L 313.94 337.97 L 310.10 342.97 L 310.42 342.23 L 309.25 350.23 L 309.26 349.82 L 310.09 357.15 L 309.84 356.46 L 313.01 361.29 L 312.42 360.75 L 315.25 362.25 L 314.87 362.11 L 318.87 363.08 L 324.08 363.74 L 331.01 364.07 L 351.59 364.24 L 357.56 364.57 L 362.16 364.74 L 365.49 365.07 C 365.62 365.09, 365.75 365.12, 365.87 365.16 L 368.20 365.99 C 368.48 366.09, 368.72 366.26, 368.90 366.48 L 371.24 369.32 C 371.44 369.56, 371.56 369.86, 371.59 370.18 L 372.09 375.35 C 372.10 375.44, 372.10 375.54, 372.09 375.63 M 425.72 407.77 C 425.28 407.78, 424.86 407.62, 424.55 407.32 C 424.24 407.01, 424.07 406.60, 424.07 406.17 L 424.07 400.33 C 424.07 399.47, 424.76 398.76, 425.62 398.73 L 431.96 398.57 L 431.63 398.61 L 435.79 397.61 L 435.14 397.94 L 438.14 395.44 L 437.80 395.84 L 440.63 391.17 L 442.00 393.60 L 439.67 393.60 C 439.08 393.60, 438.55 393.28, 438.27 392.77 L 414.60 349.94 C 414.33 349.44, 414.33 348.84, 414.62 348.35 C 414.91 347.87, 415.43 347.57, 416.00 347.57 L 424.17 347.57 C 424.75 347.57, 425.29 347.89, 425.57 348.40 L 445.91 385.90 L 443.04 386.01 L 460.04 348.51 C 460.30 347.93, 460.87 347.57, 461.50 347.57 L 469.83 347.57 C 470.38 347.57, 470.89 347.85, 471.19 348.31 C 471.48 348.78, 471.51 349.36, 471.28 349.86 L 449.61 395.03 L 446.55 400.30 C 446.48 400.42, 446.40 400.53, 446.30 400.63 L 442.46 404.46 C 442.30 404.63, 442.10 404.76, 441.88 404.84 L 435.88 407.00 C 435.76 407.05, 435.64 407.08, 435.52 407.09 L 431.18 407.59 Z M 430.82 404.41 L 435.15 403.91 L 434.79 404.00 L 440.79 401.83 L 440.20 402.20 L 444.04 398.37 L 443.78 398.70 L 446.72 393.64 L 468.39 348.47 L 469.83 350.77 L 461.50 350.77 L 462.96 349.83 L 445.96 387.33 C 445.71 387.88, 445.16 388.24, 444.56 388.27 C 443.95 388.29, 443.38 387.96, 443.09 387.43 L 422.76 349.93 L 424.17 350.77 L 416.00 350.77 L 417.40 348.39 L 441.07 391.23 L 439.67 390.40 L 442.00 390.40 C 442.58 390.40, 443.11 390.71, 443.39 391.22 C 443.68 391.72, 443.67 392.34, 443.37 392.83 L 440.53 397.50 C 440.44 397.65, 440.33 397.78, 440.19 397.90 L 437.19 400.40 C 437.00 400.55, 436.78 400.67, 436.54 400.72 L 432.37 401.72 C 432.26 401.75, 432.15 401.76, 432.04 401.77 L 425.71 401.93 L 427.27 400.33 L 427.27 406.17 L 425.62 404.57 Z M 548.71 394.43 L 541.63 394.27 L 536.02 393.76 L 531.75 393.08 C 531.64 393.06, 531.53 393.03, 531.42 392.99 L 528.42 391.82 C 528.17 391.73, 527.94 391.57, 527.77 391.36 L 524.44 387.36 C 524.24 387.12, 524.12 386.83, 524.08 386.53 L 523.25 379.69 C 523.19 379.24, 523.33 378.78, 523.64 378.44 C 523.94 378.10, 524.38 377.90, 524.83 377.90 L 531.67 377.90 C 532.50 377.90, 533.19 378.53, 533.26 379.36 L 533.59 383.19 L 533.22 382.30 L 535.05 384.47 L 534.14 383.93 L 539.30 384.93 L 539.06 384.90 L 543.23 385.07 L 548.88 385.23 L 554.79 385.07 L 559.27 384.90 L 562.33 384.58 L 562.03 384.64 L 564.20 383.97 L 563.49 384.41 L 565.49 382.25 L 565.07 383.19 L 565.41 379.36 L 565.41 379.68 L 564.91 375.35 L 565.50 376.42 L 563.00 374.42 L 563.79 374.75 L 561.29 374.42 L 557.76 374.27 L 540.82 374.10 L 535.07 373.76 L 530.53 372.90 C 530.40 372.88, 530.27 372.84, 530.15 372.78 L 527.32 371.45 C 527.09 371.34, 526.90 371.18, 526.74 370.99 L 524.91 368.66 C 524.79 368.50, 524.70 368.33, 524.64 368.15 L 523.64 364.98 C 523.60 364.87, 523.58 364.75, 523.57 364.63 L 523.24 360.46 C 523.23 360.32, 523.23 360.17, 523.26 360.03 L 524.59 353.03 C 524.67 352.65, 524.88 352.31, 525.18 352.07 L 529.68 348.57 C 529.90 348.40, 530.16 348.29, 530.43 348.25 L 538.09 347.08 L 549.79 346.73 L 556.87 346.90 L 562.43 347.24 L 566.75 347.92 C 566.88 347.94, 566.99 347.97, 567.11 348.02 L 569.94 349.19 C 570.20 349.29, 570.42 349.46, 570.59 349.68 L 573.59 353.51 C 573.77 353.74, 573.88 354.01, 573.92 354.30 L 574.75 360.97 C 574.81 361.42, 574.67 361.88, 574.37 362.23 C 574.06 362.57, 573.63 362.77, 573.17 362.77 L 566.33 362.77 C 565.50 362.77, 564.81 362.13, 564.74 361.31 L 564.41 357.47 L 564.82 358.41 L 562.99 356.41 L 563.89 356.91 L 559.06 356.08 L 555.43 355.93 L 550.17 355.93 L 544.17 355.93 L 539.73 356.10 L 534.36 356.76 L 535.25 356.35 L 533.25 358.18 L 533.76 357.16 L 533.43 360.49 L 533.43 360.25 L 533.60 363.59 L 533.29 362.73 L 534.63 364.56 L 533.72 363.95 L 537.05 364.78 L 536.75 364.74 L 543.41 365.07 L 558.02 365.23 L 563.92 365.57 L 568.25 366.25 C 568.43 366.28, 568.59 366.34, 568.75 366.42 L 571.58 367.92 C 571.78 368.02, 571.95 368.17, 572.09 368.34 L 573.92 370.68 C 574.05 370.84, 574.14 371.02, 574.20 371.21 L 575.20 374.54 C 575.23 374.65, 575.25 374.77, 575.26 374.88 L 575.60 379.38 C 575.61 379.52, 575.60 379.65, 575.57 379.79 L 574.24 387.12 C 574.18 387.47, 574.00 387.79, 573.73 388.03 L 569.39 391.87 C 569.19 392.05, 568.94 392.17, 568.67 392.23 L 560.83 393.90 C 560.76 393.91, 560.68 393.93, 560.60 393.93 L 555.27 394.26 Z M 555.07 391.07 L 560.40 390.74 L 560.17 390.77 L 568.00 389.10 L 567.27 389.47 L 571.61 385.63 L 571.09 386.55 L 572.43 379.21 L 572.40 379.62 L 572.07 375.12 L 572.13 375.46 L 571.13 372.13 L 571.41 372.66 L 569.58 370.32 L 570.08 370.75 L 567.25 369.25 L 567.75 369.41 L 563.74 368.76 L 557.98 368.43 L 543.25 368.26 L 536.59 367.93 C 536.48 367.93, 536.38 367.91, 536.28 367.89 L 532.95 367.05 C 532.58 366.96, 532.26 366.74, 532.04 366.44 L 530.71 364.61 C 530.52 364.36, 530.42 364.06, 530.40 363.75 L 530.24 360.41 C 530.23 360.33, 530.23 360.25, 530.24 360.17 L 530.57 356.84 C 530.61 356.45, 530.80 356.09, 531.09 355.82 L 533.09 353.99 C 533.33 353.76, 533.64 353.62, 533.97 353.58 L 539.61 352.90 L 544.17 352.73 L 550.17 352.73 L 555.57 352.73 L 559.61 352.92 L 564.44 353.76 C 564.79 353.82, 565.11 353.99, 565.35 354.25 L 567.18 356.25 C 567.42 356.51, 567.56 356.84, 567.59 357.19 L 567.93 361.03 L 566.33 359.57 L 573.17 359.57 L 571.58 361.37 L 570.75 354.70 L 571.07 355.49 L 568.07 351.65 L 568.72 352.15 L 565.89 350.98 L 566.25 351.08 L 562.24 350.43 L 556.80 350.10 L 549.88 349.93 L 538.57 350.25 L 530.91 351.42 L 531.65 351.10 L 527.15 354.60 L 527.74 353.63 L 526.41 360.63 L 526.43 360.21 L 526.76 364.37 L 526.69 364.02 L 527.69 367.18 L 527.42 366.68 L 529.26 369.01 L 528.68 368.55 L 531.51 369.89 L 531.14 369.76 L 535.26 370.57 L 540.85 370.90 L 557.91 371.07 L 561.71 371.25 L 564.21 371.58 C 564.50 371.62, 564.77 371.74, 565.00 371.92 L 567.50 373.92 C 567.83 374.18, 568.04 374.56, 568.09 374.98 L 568.59 379.32 C 568.60 379.42, 568.60 379.53, 568.59 379.64 L 568.26 383.47 C 568.23 383.83, 568.08 384.16, 567.84 384.42 L 565.84 386.59 C 565.65 386.79, 565.41 386.95, 565.14 387.03 L 562.97 387.70 C 562.87 387.73, 562.77 387.75, 562.67 387.76 L 559.39 388.10 L 554.88 388.27 L 548.79 388.43 L 543.10 388.27 L 538.94 388.10 C 538.86 388.10, 538.78 388.09, 538.70 388.07 L 533.53 387.07 C 533.17 387.00, 532.85 386.81, 532.61 386.53 L 530.78 384.37 C 530.56 384.11, 530.43 383.80, 530.41 383.47 L 530.07 379.64 L 531.67 381.10 L 524.83 381.10 L 526.42 379.31 L 527.25 386.14 L 526.90 385.31 L 530.23 389.31 L 529.58 388.84 L 532.58 390.01 L 532.25 389.92 L 536.31 390.57 L 541.70 391.07 L 548.63 391.23 Z M 647.95 393.60 L 641.74 393.26 C 641.66 393.26, 641.57 393.25, 641.49 393.23 L 636.99 392.23 C 636.84 392.20, 636.70 392.14, 636.56 392.07 L 633.23 390.24 C 633.05 390.14, 632.89 390.01, 632.76 389.85 L 630.43 387.02 C 630.30 386.86, 630.20 386.68, 630.14 386.49 L 628.81 382.32 C 628.77 382.21, 628.75 382.10, 628.74 381.98 L 628.24 376.65 L 628.23 337.50 C 628.23 336.62, 628.95 335.90, 629.83 335.90 L 637.00 335.90 C 637.88 335.90, 638.60 336.62, 638.60 337.50 L 638.60 349.17 L 637.00 347.57 L 663.33 347.57 C 664.22 347.57, 664.93 348.28, 664.93 349.17 L 664.93 355.00 C 664.93 355.88, 664.22 356.60, 663.33 356.60 L 637.00 356.60 L 638.60 355.00 L 638.60 376.50 L 638.77 380.09 L 638.74 379.85 L 639.24 382.35 L 638.70 381.44 L 641.86 384.11 L 641.11 383.76 L 643.94 384.26 L 647.90 384.40 L 654.12 384.23 L 653.54 384.36 L 657.04 382.86 L 656.19 383.73 L 657.69 380.06 L 657.57 380.58 L 657.74 377.42 L 657.73 373.33 C 657.73 372.45, 658.45 371.73, 659.33 371.73 L 665.67 371.73 C 666.10 371.73, 666.51 371.91, 666.81 372.22 C 667.12 372.53, 667.28 372.95, 667.27 373.38 L 667.10 378.88 L 666.59 383.35 C 666.57 383.52, 666.52 383.69, 666.45 383.85 L 663.78 389.51 C 663.62 389.86, 663.34 390.13, 663.00 390.29 L 657.50 392.79 C 657.32 392.87, 657.14 392.92, 656.95 392.93 M 656.72 389.74 L 656.17 389.88 L 661.67 387.38 L 660.89 388.15 L 663.55 382.49 L 663.41 382.98 L 663.90 378.78 L 664.07 373.28 L 665.67 374.93 L 659.33 374.93 L 660.93 373.33 L 660.93 377.58 L 660.76 380.75 C 660.75 380.93, 660.72 381.11, 660.65 381.27 L 659.15 384.94 C 658.99 385.33, 658.68 385.64, 658.30 385.80 L 654.80 387.30 C 654.61 387.38, 654.41 387.43, 654.21 387.43 L 647.77 387.60 L 643.39 387.41 L 640.56 386.91 C 640.28 386.86, 640.02 386.74, 639.80 386.56 L 636.64 383.89 C 636.36 383.66, 636.17 383.34, 636.10 382.98 L 635.60 380.48 C 635.58 380.40, 635.57 380.32, 635.57 380.24 L 635.40 376.50 L 635.40 355.00 C 635.40 354.12, 636.12 353.40, 637.00 353.40 L 663.33 353.40 L 661.73 355.00 L 661.73 349.17 L 663.33 350.77 L 637.00 350.77 C 636.12 350.77, 635.40 350.05, 635.40 349.17 L 635.40 337.50 L 637.00 339.10 L 629.83 339.10 L 631.43 337.50 L 631.43 376.35 L 631.93 381.68 L 631.86 381.35 L 633.19 385.51 L 632.90 384.98 L 635.24 387.82 L 634.77 387.43 L 638.10 389.26 L 637.68 389.10 L 642.18 390.10 L 641.92 390.07 L 647.72 390.40 Z M 768.50 377.73 C 768.98 377.73, 769.43 377.95, 769.74 378.32 C 770.04 378.69, 770.16 379.18, 770.07 379.65 L 768.57 387.15 C 768.50 387.48, 768.33 387.78, 768.09 388.01 L 763.75 392.01 C 763.54 392.20, 763.29 392.33, 763.01 392.40 L 755.51 394.06 C 755.42 394.08, 755.32 394.10, 755.22 394.10 L 744.38 394.43 L 737.63 394.27 L 731.97 393.59 C 731.85 393.57, 731.72 393.54, 731.60 393.50 L 723.60 390.50 C 723.38 390.41, 723.17 390.27, 723.00 390.10 L 720.33 387.26 C 720.22 387.14, 720.13 387.01, 720.06 386.86 L 718.22 383.02 C 718.16 382.90, 718.12 382.77, 718.10 382.64 L 717.10 377.47 C 717.08 377.40, 717.07 377.32, 717.07 377.24 L 716.74 370.41 L 717.07 363.75 L 718.10 358.36 C 718.12 358.25, 718.15 358.14, 718.20 358.03 L 719.87 354.20 C 719.95 354.01, 720.06 353.84, 720.20 353.70 L 722.87 351.04 C 723.03 350.87, 723.22 350.75, 723.44 350.67 L 731.44 347.67 C 731.56 347.62, 731.68 347.59, 731.81 347.58 L 737.31 346.91 L 744.13 346.73 L 751.74 347.07 L 757.89 347.92 C 757.99 347.93, 758.09 347.95, 758.19 347.99 L 763.02 349.65 C 763.19 349.71, 763.36 349.80, 763.50 349.92 L 766.83 352.58 C 767.01 352.73, 767.16 352.91, 767.26 353.12 L 769.26 357.12 C 769.35 357.28, 769.40 357.46, 769.42 357.64 L 770.09 363.14 L 770.10 372.50 C 770.10 373.38, 769.38 374.10, 768.50 374.10 L 725.50 374.10 L 727.09 372.36 L 727.76 380.03 L 727.55 379.37 L 730.05 383.70 L 729.38 383.07 L 731.72 384.24 L 731.31 384.10 L 734.65 384.76 L 738.79 385.07 L 744.38 385.23 L 749.50 385.23 L 753.43 385.07 L 753.20 385.10 L 758.36 384.10 L 757.58 384.50 L 760.08 382.16 L 759.59 383.07 L 760.26 379.07 C 760.38 378.30, 761.05 377.73, 761.83 377.73 M 761.83 380.93 L 763.41 379.60 L 762.74 383.60 C 762.69 383.94, 762.52 384.26, 762.26 384.50 L 759.76 386.84 C 759.54 387.04, 759.27 387.18, 758.97 387.24 L 753.80 388.24 C 753.73 388.25, 753.65 388.26, 753.57 388.27 L 749.50 388.43 L 744.29 388.43 L 738.54 388.26 L 734.02 387.90 L 730.69 387.24 C 730.55 387.21, 730.41 387.16, 730.28 387.10 L 727.95 385.93 C 727.67 385.79, 727.44 385.57, 727.28 385.30 L 724.78 380.97 C 724.66 380.76, 724.59 380.54, 724.57 380.31 L 723.91 372.64 C 723.87 372.19, 724.02 371.75, 724.32 371.42 C 724.62 371.09, 725.05 370.90, 725.50 370.90 L 768.50 370.90 L 766.90 372.50 L 766.91 363.53 L 766.24 358.03 L 766.40 358.55 L 764.40 354.55 L 764.83 355.08 L 761.50 352.42 L 761.98 352.68 L 757.15 351.01 L 757.45 351.08 L 751.60 350.27 L 744.21 349.93 L 737.69 350.09 L 732.19 350.76 L 732.56 350.66 L 724.56 353.66 L 725.13 353.30 L 722.46 355.96 L 722.80 355.47 L 721.13 359.30 L 721.24 358.97 L 720.26 363.92 L 719.93 370.26 L 720.26 377.09 L 720.24 376.86 L 721.24 382.03 L 721.11 381.64 L 722.94 385.48 L 722.67 385.07 L 725.33 387.90 L 724.73 387.50 L 732.73 390.50 L 732.36 390.41 L 737.71 391.07 L 744.28 391.23 L 755.12 390.90 L 754.82 390.94 L 762.32 389.27 L 761.58 389.66 L 765.91 385.66 L 765.43 386.52 L 766.93 379.02 L 768.50 380.93 Z M 744.12 355.93 L 738.72 356.10 L 734.63 356.43 L 731.48 357.07 L 731.80 356.97 L 729.46 357.97 L 730.15 357.41 L 727.48 361.25 L 727.76 360.49 L 727.09 367.16 L 725.50 365.40 L 761.67 365.40 L 760.07 367.00 L 760.07 363.33 L 760.09 363.58 L 759.42 359.24 L 759.76 360.02 L 757.43 357.18 L 758.23 357.71 L 752.90 356.21 L 753.27 356.27 L 749.27 356.10 Z M 749.40 352.90 L 753.40 353.07 C 753.52 353.07, 753.65 353.09, 753.77 353.13 L 759.10 354.63 C 759.41 354.71, 759.69 354.90, 759.90 355.15 L 762.24 357.98 C 762.42 358.21, 762.54 358.47, 762.58 358.76 L 763.25 363.09 C 763.26 363.17, 763.27 363.25, 763.27 363.33 L 763.27 367.00 C 763.27 367.88, 762.55 368.60, 761.67 368.60 L 725.50 368.60 C 725.05 368.60, 724.62 368.41, 724.31 368.07 C 724.01 367.74, 723.86 367.29, 723.91 366.84 L 724.57 360.17 C 724.60 359.90, 724.70 359.64, 724.85 359.42 L 727.52 355.59 C 727.69 355.34, 727.93 355.15, 728.20 355.03 L 730.54 354.03 C 730.64 353.99, 730.74 353.95, 730.85 353.93 L 734.37 353.24 L 738.62 352.90 L 744.22 352.73 Z M 823.17 393.60 C 822.28 393.60, 821.57 392.88, 821.57 392.00 L 821.57 349.17 C 821.57 348.28, 822.28 347.57, 823.17 347.57 L 830.33 347.57 C 831.22 347.57, 831.93 348.28, 831.93 349.17 L 831.93 354.50 L 829.20 353.37 L 832.87 349.70 C 833.03 349.54, 833.23 349.41, 833.44 349.33 L 839.28 347.17 C 839.39 347.12, 839.51 347.09, 839.63 347.08 L 843.63 346.58 L 848.61 346.40 L 854.96 346.91 C 855.06 346.91, 855.16 346.93, 855.26 346.96 L 860.09 348.29 C 860.26 348.34, 860.42 348.41, 860.57 348.51 L 864.23 351.01 C 864.41 351.13, 864.56 351.28, 864.67 351.46 L 867.17 355.29 L 864.66 355.08 L 868.99 350.41 C 869.15 350.24, 869.34 350.11, 869.56 350.02 L 876.06 347.35 C 876.18 347.31, 876.30 347.27, 876.42 347.25 L 880.76 346.59 L 886.12 346.40 L 892.46 346.91 C 892.56 346.91, 892.66 346.93, 892.76 346.96 L 897.59 348.29 C 897.76 348.34, 897.92 348.41, 898.07 348.51 L 901.73 351.01 C 901.90 351.12, 902.04 351.26, 902.15 351.42 L 904.81 355.25 C 904.92 355.41, 905.00 355.58, 905.05 355.77 L 906.38 360.93 C 906.41 361.03, 906.42 361.12, 906.43 361.22 L 906.93 368.05 L 906.93 392.00 C 906.93 392.88, 906.22 393.60, 905.33 393.60 L 898.33 393.60 C 897.45 393.60, 896.73 392.88, 896.73 392.00 L 896.73 368.17 L 896.40 363.10 L 896.46 363.42 L 895.46 359.75 L 895.64 360.18 L 893.98 357.51 L 894.47 358.01 L 892.13 356.51 L 892.61 356.72 L 889.28 355.89 L 889.54 355.93 L 885.21 355.60 L 885.46 355.59 L 877.30 356.26 L 877.73 356.16 L 872.40 358.16 L 873.09 357.65 L 870.09 361.49 L 870.41 360.79 L 869.41 366.13 L 869.43 365.83 L 869.43 368.17 L 869.43 392.00 C 869.43 392.88, 868.72 393.60, 867.83 393.60 L 860.67 393.60 C 859.78 393.60, 859.07 392.88, 859.07 392.00 L 859.07 368.17 L 858.74 363.10 L 858.77 363.35 L 857.94 359.69 L 858.14 360.18 L 856.48 357.51 L 856.97 358.01 L 854.63 356.51 L 855.26 356.75 L 847.59 355.58 L 847.96 355.59 L 839.80 356.26 L 840.23 356.16 L 834.90 358.16 L 835.59 357.65 L 832.59 361.49 L 832.91 360.79 L 831.91 366.13 L 831.93 365.83 L 831.93 392.00 C 831.93 392.88, 831.22 393.60, 830.33 393.60 M 830.33 390.40 L 828.73 392.00 L 828.73 365.83 C 828.73 365.73, 828.74 365.64, 828.76 365.54 L 829.76 360.21 C 829.81 359.95, 829.92 359.72, 830.07 359.51 L 833.07 355.68 C 833.25 355.45, 833.50 355.27, 833.77 355.17 L 839.10 353.17 C 839.24 353.12, 839.39 353.08, 839.54 353.07 L 847.70 352.41 C 847.83 352.40, 847.95 352.40, 848.07 352.42 L 855.74 353.58 C 855.96 353.62, 856.18 353.70, 856.37 353.82 L 858.70 355.32 C 858.90 355.45, 859.06 355.62, 859.19 355.82 L 860.86 358.49 C 860.95 358.64, 861.02 358.80, 861.06 358.98 L 861.89 362.65 C 861.91 362.73, 861.92 362.81, 861.93 362.90 L 862.27 368.17 L 862.27 392.00 L 860.67 390.40 L 867.83 390.40 L 866.23 392.00 L 866.23 368.17 L 866.23 365.83 C 866.23 365.73, 866.24 365.64, 866.26 365.54 L 867.26 360.21 C 867.31 359.95, 867.42 359.72, 867.57 359.51 L 870.57 355.68 C 870.75 355.45, 871.00 355.27, 871.27 355.17 L 876.60 353.17 C 876.74 353.12, 876.89 353.08, 877.04 353.07 L 885.20 352.41 C 885.29 352.40, 885.37 352.40, 885.46 352.40 L 889.79 352.74 C 889.88 352.74, 889.97 352.76, 890.05 352.78 L 893.39 353.61 C 893.56 353.66, 893.72 353.73, 893.87 353.82 L 896.20 355.32 C 896.40 355.45, 896.56 355.62, 896.69 355.82 L 898.36 358.49 C 898.44 358.62, 898.50 358.76, 898.54 358.91 L 899.54 362.58 C 899.57 362.68, 899.59 362.79, 899.60 362.90 L 899.93 368.17 L 899.93 392.00 L 898.33 390.40 L 905.33 390.40 L 903.73 392.00 L 903.74 368.28 L 903.24 361.45 L 903.28 361.73 L 901.95 356.57 L 902.19 357.08 L 899.52 353.25 L 899.93 353.66 L 896.27 351.16 L 896.74 351.38 L 891.91 350.04 L 892.20 350.09 L 886.22 349.60 L 881.24 349.75 L 876.91 350.41 L 877.27 350.31 L 870.77 352.98 L 871.34 352.59 L 867.01 357.26 C 866.67 357.62, 866.19 357.80, 865.70 357.76 C 865.21 357.72, 864.76 357.45, 864.49 357.04 L 861.99 353.21 L 862.43 353.66 L 858.77 351.16 L 859.24 351.38 L 854.41 350.04 L 854.70 350.09 L 848.72 349.60 L 844.03 349.75 L 840.03 350.25 L 840.39 350.17 L 834.56 352.33 L 835.13 351.96 L 831.46 355.63 C 831.01 356.09, 830.32 356.23, 829.72 355.98 C 829.12 355.73, 828.73 355.15, 828.73 354.50 L 828.73 349.17 L 830.33 350.77 L 823.17 350.77 L 824.77 349.17 L 824.77 392.00 L 823.17 390.40 Z M 974.71 394.43 L 967.63 394.27 L 962.02 393.76 L 957.75 393.08 C 957.64 393.06, 957.53 393.03, 957.42 392.99 L 954.42 391.82 C 954.17 391.73, 953.94 391.57, 953.77 391.36 L 950.44 387.36 C 950.24 387.12, 950.12 386.83, 950.08 386.53 L 949.25 379.69 C 949.19 379.24, 949.33 378.78, 949.64 378.44 C 949.94 378.10, 950.38 377.90, 950.83 377.90 L 957.67 377.90 C 958.50 377.90, 959.19 378.53, 959.26 379.36 L 959.59 383.19 L 959.22 382.30 L 961.05 384.47 L 960.14 383.93 L 965.30 384.93 L 965.06 384.90 L 969.23 385.07 L 974.88 385.23 L 980.79 385.07 L 985.27 384.90 L 988.33 384.58 L 988.03 384.64 L 990.20 383.97 L 989.49 384.41 L 991.49 382.25 L 991.07 383.19 L 991.41 379.36 L 991.41 379.68 L 990.91 375.35 L 991.50 376.42 L 989.00 374.42 L 989.79 374.75 L 987.29 374.42 L 983.76 374.27 L 966.82 374.10 L 961.07 373.76 L 956.53 372.90 C 956.40 372.88, 956.27 372.84, 956.15 372.78 L 953.32 371.45 C 953.09 371.34, 952.90 371.18, 952.74 370.99 L 950.91 368.66 C 950.79 368.50, 950.70 368.33, 950.64 368.15 L 949.64 364.98 C 949.60 364.87, 949.58 364.75, 949.57 364.63 L 949.24 360.46 C 949.23 360.32, 949.23 360.17, 949.26 360.03 L 950.59 353.03 C 950.67 352.65, 950.88 352.31, 951.18 352.07 L 955.68 348.57 C 955.90 348.40, 956.16 348.29, 956.43 348.25 L 964.09 347.08 L 975.79 346.73 L 982.87 346.90 L 988.43 347.24 L 992.75 347.92 C 992.88 347.94, 992.99 347.97, 993.11 348.02 L 995.94 349.19 C 996.20 349.29, 996.42 349.46, 996.59 349.68 L 999.59 353.51 C 999.77 353.74, 999.88 354.01, 999.92 354.30 L 1000.75 360.97 C 1000.81 361.42, 1000.67 361.88, 1000.37 362.23 C 1000.06 362.57, 999.63 362.77, 999.17 362.77 L 992.33 362.77 C 991.50 362.77, 990.81 362.13, 990.74 361.31 L 990.41 357.47 L 990.82 358.41 L 988.99 356.41 L 989.89 356.91 L 985.06 356.08 L 981.43 355.93 L 976.17 355.93 L 970.17 355.93 L 965.73 356.10 L 960.36 356.76 L 961.25 356.35 L 959.25 358.18 L 959.76 357.16 L 959.43 360.49 L 959.43 360.25 L 959.60 363.59 L 959.29 362.73 L 960.63 364.56 L 959.72 363.95 L 963.05 364.78 L 962.75 364.74 L 969.41 365.07 L 984.02 365.23 L 989.92 365.57 L 994.25 366.25 C 994.43 366.28, 994.59 366.34, 994.75 366.42 L 997.58 367.92 C 997.78 368.02, 997.95 368.17, 998.09 368.34 L 999.92 370.68 C 1000.05 370.84, 1000.14 371.02, 1000.20 371.21 L 1001.20 374.54 C 1001.23 374.65, 1001.25 374.77, 1001.26 374.88 L 1001.60 379.38 C 1001.61 379.52, 1001.60 379.65, 1001.57 379.79 L 1000.24 387.12 C 1000.18 387.47, 1000.00 387.79, 999.73 388.03 L 995.39 391.87 C 995.19 392.05, 994.94 392.17, 994.67 392.23 L 986.83 393.90 C 986.76 393.91, 986.68 393.93, 986.60 393.93 L 981.27 394.26 Z M 981.07 391.07 L 986.40 390.74 L 986.17 390.77 L 994.00 389.10 L 993.27 389.47 L 997.61 385.63 L 997.09 386.55 L 998.43 379.21 L 998.40 379.62 L 998.07 375.12 L 998.13 375.46 L 997.13 372.13 L 997.41 372.66 L 995.58 370.32 L 996.08 370.75 L 993.25 369.25 L 993.75 369.41 L 989.74 368.76 L 983.98 368.43 L 969.25 368.26 L 962.59 367.93 C 962.48 367.93, 962.38 367.91, 962.28 367.89 L 958.95 367.05 C 958.58 366.96, 958.26 366.74, 958.04 366.44 L 956.71 364.61 C 956.52 364.36, 956.42 364.06, 956.40 363.75 L 956.24 360.41 C 956.23 360.33, 956.23 360.25, 956.24 360.17 L 956.57 356.84 C 956.61 356.45, 956.80 356.09, 957.09 355.82 L 959.09 353.99 C 959.33 353.76, 959.64 353.62, 959.97 353.58 L 965.61 352.90 L 970.17 352.73 L 976.17 352.73 L 981.57 352.73 L 985.61 352.92 L 990.44 353.76 C 990.79 353.82, 991.11 353.99, 991.35 354.25 L 993.18 356.25 C 993.42 356.51, 993.56 356.84, 993.59 357.19 L 993.93 361.03 L 992.33 359.57 L 999.17 359.57 L 997.58 361.37 L 996.75 354.70 L 997.07 355.49 L 994.07 351.65 L 994.72 352.15 L 991.89 350.98 L 992.25 351.08 L 988.24 350.43 L 982.80 350.10 L 975.88 349.93 L 964.57 350.25 L 956.91 351.42 L 957.65 351.10 L 953.15 354.60 L 953.74 353.63 L 952.41 360.63 L 952.43 360.21 L 952.76 364.37 L 952.69 364.02 L 953.69 367.18 L 953.42 366.68 L 955.26 369.01 L 954.68 368.55 L 957.51 369.89 L 957.14 369.76 L 961.26 370.57 L 966.85 370.90 L 983.91 371.07 L 987.71 371.25 L 990.21 371.58 C 990.50 371.62, 990.77 371.74, 991.00 371.92 L 993.50 373.92 C 993.83 374.18, 994.04 374.56, 994.09 374.98 L 994.59 379.32 C 994.60 379.42, 994.60 379.53, 994.59 379.64 L 994.26 383.47 C 994.23 383.83, 994.08 384.16, 993.84 384.42 L 991.84 386.59 C 991.65 386.79, 991.41 386.95, 991.14 387.03 L 988.97 387.70 C 988.87 387.73, 988.77 387.75, 988.67 387.76 L 985.39 388.10 L 980.88 388.27 L 974.79 388.43 L 969.10 388.27 L 964.94 388.10 C 964.86 388.10, 964.78 388.09, 964.70 388.07 L 959.53 387.07 C 959.17 387.00, 958.85 386.81, 958.61 386.53 L 956.78 384.37 C 956.56 384.11, 956.43 383.80, 956.41 383.47 L 956.07 379.64 L 957.67 381.10 L 950.83 381.10 L 952.42 379.31 L 953.25 386.14 L 952.90 385.31 L 956.23 389.31 L 955.58 388.84 L 958.58 390.01 L 958.25 389.92 L 962.31 390.57 L 967.70 391.07 L 974.63 391.23 Z " fill="#F8FAFC" />
</svg>